<svg width="614" height="356" viewBox="0 0 614 356" fill="none" xmlns="http://www.w3.org/2000/svg">
<g filter="url(#filter0_d_2028_452)">
<path d="M223.82 163C216.088 163 209.82 169.268 209.82 177C209.82 184.732 216.088 191 223.82 191V163ZM249.625 177V191H249.713L249.8 190.999L249.625 177ZM275.405 175.599L277.247 189.477L275.405 175.599ZM183.648 70.9753L197.48 73.1366L197.481 73.1269L197.483 73.1172L183.648 70.9753ZM191.075 48.556L178.851 41.7321H178.851L191.075 48.556ZM209.864 28.005L201.346 16.8947L201.346 16.8947L209.864 28.005ZM226.904 19.5978L222.578 6.28306L226.904 19.5978ZM269.288 14.46L267.839 28.3849L269.288 14.46ZM249.625 14.4602L250.746 28.4153L249.625 14.4602ZM291.571 19.5978L286.63 32.6969H286.63L291.571 19.5978ZM326.527 50.4244L338.272 42.8059V42.8059L326.527 50.4244ZM312.544 33.1429L303.203 43.5703L303.203 43.5703L312.544 33.1429ZM337.45 125.623L350.909 129.477L337.45 125.623ZM334.828 67.2388L321.854 72.4984V72.4984L334.828 67.2388ZM298.125 170.461L292.749 157.535H292.749L298.125 170.461ZM223.82 191H249.625V163H223.82V191ZM249.625 177C249.8 190.999 249.8 190.999 249.801 190.999C249.801 190.999 249.802 190.999 249.802 190.999C249.803 190.999 249.805 190.999 249.806 190.999C249.81 190.999 249.814 190.999 249.819 190.999C249.83 190.999 249.844 190.998 249.863 190.998C249.9 190.998 249.952 190.997 250.02 190.996C250.156 190.994 250.351 190.991 250.601 190.987C251.101 190.978 251.818 190.965 252.703 190.945C254.472 190.906 256.928 190.84 259.679 190.736C265.014 190.534 272.043 190.168 277.247 189.477L273.562 161.721C269.792 162.221 263.931 162.555 258.62 162.756C256.048 162.854 253.742 162.915 252.079 162.952C251.249 162.971 250.583 162.983 250.128 162.991C249.901 162.995 249.727 162.997 249.612 162.999C249.555 163 249.512 163 249.485 163.001C249.471 163.001 249.462 163.001 249.456 163.001C249.453 163.001 249.451 163.001 249.45 163.001C249.45 163.001 249.45 163.001 249.45 163.001C249.45 163.001 249.45 163.001 249.45 163.001C249.45 163.001 249.451 163.001 249.625 177ZM183.648 70.9753C169.815 68.814 169.815 68.8144 169.815 68.8149C169.815 68.8151 169.815 68.8157 169.815 68.8162C169.815 68.8172 169.815 68.8185 169.814 68.8201C169.814 68.8233 169.813 68.8277 169.812 68.8331C169.811 68.844 169.808 68.8595 169.805 68.8793C169.799 68.9189 169.79 68.9761 169.779 69.0498C169.756 69.1971 169.723 69.4106 169.682 69.6818C169.599 70.2241 169.482 70.9987 169.342 71.9391C169.065 73.8153 168.696 76.3727 168.335 79.072C167.978 81.7511 167.616 84.667 167.364 87.2306C167.158 89.3122 166.868 92.5355 167.074 95.0239L194.978 92.7135C195.019 93.2034 194.973 92.5657 195.228 89.9801C195.436 87.8764 195.75 85.3187 196.09 82.7741C196.426 80.2497 196.775 77.8333 197.04 76.0415C197.173 75.1479 197.284 74.415 197.361 73.9083C197.4 73.655 197.43 73.4586 197.45 73.3272C197.46 73.2615 197.468 73.2121 197.473 73.18C197.475 73.1639 197.477 73.1522 197.478 73.1449C197.479 73.1413 197.479 73.1388 197.48 73.1374C197.48 73.1367 197.48 73.1363 197.48 73.1361C197.48 73.1361 197.48 73.1362 197.48 73.1362C197.48 73.1364 197.48 73.1366 183.648 70.9753ZM178.851 41.7321C175.313 48.0699 173.097 54.92 171.785 59.8229C171.109 62.3469 170.628 64.5225 170.313 66.0914C170.155 66.8788 170.036 67.5211 169.954 67.987C169.913 68.2202 169.881 68.4098 169.858 68.552C169.846 68.6231 169.836 68.6825 169.829 68.7295C169.825 68.7531 169.822 68.7735 169.819 68.7909C169.818 68.7995 169.816 68.8074 169.815 68.8145C169.815 68.8181 169.814 68.8214 169.814 68.8246C169.813 68.8262 169.813 68.8284 169.813 68.8292C169.813 68.8313 169.812 68.8335 183.648 70.9753C197.483 73.1172 197.482 73.1192 197.482 73.1212C197.482 73.1218 197.482 73.1237 197.481 73.1249C197.481 73.1273 197.481 73.1295 197.48 73.1315C197.48 73.1355 197.479 73.1388 197.479 73.1414C197.478 73.1465 197.478 73.1488 197.478 73.1481C197.478 73.1469 197.48 73.1342 197.484 73.1106C197.492 73.0633 197.507 72.9724 197.53 72.8416C197.576 72.5796 197.653 72.1602 197.763 71.612C197.985 70.5101 198.335 68.9201 198.832 67.0655C199.864 63.211 201.362 58.8515 203.3 55.3799L178.851 41.7321ZM201.346 16.8947C190.975 24.8457 182.75 34.7476 178.851 41.7321L203.3 55.3799C205.137 52.0886 210.695 45.0089 218.382 39.1153L201.346 16.8947ZM222.578 6.28306C215.479 8.58962 206.918 12.6225 201.346 16.8947L218.382 39.1153C220.675 37.3574 226.095 34.5813 231.231 32.9125L222.578 6.28306ZM270.736 0.535165C262.96 -0.273723 255.633 -0.0674238 248.504 0.505159L250.746 28.4153C256.89 27.9217 262.368 27.8158 267.839 28.3849L270.736 0.535165ZM248.504 0.505159C237.906 1.35649 228.744 4.27944 222.578 6.28306L231.231 32.9125C237.299 30.9408 243.721 28.9796 250.746 28.4153L248.504 0.505159ZM296.513 6.49871C288.175 3.3536 279.227 1.41845 270.736 0.535165L267.839 28.3849C274.27 29.0538 280.83 30.5089 286.63 32.6969L296.513 6.49871ZM338.272 42.8059C333.191 34.9726 329.424 29.4684 321.886 22.7154L303.203 43.5703C307.922 47.7982 310.075 50.788 314.781 58.043L338.272 42.8059ZM321.886 22.7154C314.415 16.0224 307.222 10.5385 296.512 6.49871L286.63 32.6969C292.769 35.0126 296.98 37.9954 303.203 43.5703L321.886 22.7154ZM350.909 129.477C358.447 103.156 354.479 78.4487 347.803 61.9792L321.854 72.4984C326.538 84.0533 329.561 102.316 323.991 121.768L350.909 129.477ZM347.803 61.9792C345.592 56.525 342.988 50.0757 338.272 42.8059L314.781 58.043C317.904 62.858 319.662 67.0914 321.854 72.4984L347.803 61.9792ZM332.603 163.396C334.381 161.731 336.089 159.361 337.247 157.675C338.668 155.607 340.281 153.043 341.908 150.178C345.1 144.556 348.723 137.11 350.909 129.477L323.991 121.768C322.64 126.487 320.146 131.797 317.559 136.354C316.296 138.578 315.104 140.459 314.169 141.82C312.972 143.562 312.774 143.605 313.459 142.963L332.603 163.396ZM277.247 189.477C286.284 188.277 292.615 187.916 303.502 183.388L292.749 157.535C285.894 160.386 283.418 160.412 273.562 161.721L277.247 189.477ZM303.502 183.388C313.689 179.15 320.619 174.615 325.504 170.495C327.935 168.444 329.736 166.6 331.065 165.147C331.681 164.474 332.256 163.816 332.541 163.495C332.963 163.02 332.87 163.146 332.603 163.396L313.459 142.963C312.645 143.725 311.925 144.542 311.596 144.913C311.13 145.439 310.831 145.783 310.409 146.244C309.663 147.059 308.733 148.01 307.45 149.093C304.907 151.238 300.476 154.32 292.749 157.535L303.502 183.388Z" fill="url(#paint0_linear_2028_452)"/>
</g>
<g filter="url(#filter1_dd_2028_452)">
<path d="M111.117 177C111.117 177 93.9921 177.206 84.8462 178.375C75.2197 179.606 70.7324 179.797 61.6922 183.419C43.436 190.733 38.538 198.373 36.3117 200.382C34.0853 202.391 25.2227 215.307 21.6177 227.432C14.9386 249.897 18.5008 270.987 24.2894 284.741C26.5328 290.072 28.7554 295.315 32.7495 301.246C37.7362 308.651 40.7528 312.82 46.9982 318.209C53.9757 324.231 59.7861 328.386 68.3712 331.505C75.5751 334.123 83.4767 335.787 91.0801 336.548C97.8299 337.225 104.355 337.071 111.117 336.548C120.097 335.853 128.038 333.456 134.271 331.505C140.505 329.554 147.63 326.212 151.637 323.253C160.838 316.458 167.861 308.123 170.784 303.08C176.364 293.451 178.743 281.08 178.743 281.08C178.743 281.08 181.307 268.499 180.969 264.575" stroke="url(#paint1_linear_2028_452)" stroke-width="28"/>
</g>
<g filter="url(#filter2_d_2028_452)">
<line x1="117" y1="90.4924" x2="117" y2="275.492" stroke="url(#paint2_linear_2028_452)" stroke-width="28"/>
<path d="M235 115.492C242.732 115.492 249 109.224 249 101.492C249 93.7604 242.732 87.4924 235 87.4924V115.492ZM103 115.492H235V87.4924H103V115.492Z" fill="url(#paint3_linear_2028_452)"/>
<path d="M181 191C188.732 191 195 184.732 195 177C195 169.268 188.732 163 181 163V191ZM131 191H181V163H131V191Z" fill="url(#paint4_linear_2028_452)"/>
<path d="M235 275.492C242.732 275.492 249 269.224 249 261.492C249 253.76 242.732 247.492 235 247.492V275.492ZM103 275.492H235V247.492H103V275.492Z" fill="url(#paint5_linear_2028_452)"/>
</g>
<path d="M284.528 273.612C278.181 273.612 273.104 272.207 269.296 269.396C265.488 266.54 263.267 262.528 262.632 257.36H272.696C273.013 259.989 274.283 262.075 276.504 263.616C278.725 265.112 281.559 265.86 285.004 265.86C287.815 265.86 289.968 265.361 291.464 264.364C293.005 263.367 293.776 262.029 293.776 260.352C293.776 258.765 293.323 257.496 292.416 256.544C291.509 255.547 289.945 254.753 287.724 254.164L278.612 251.648C273.943 250.333 270.52 248.543 268.344 246.276C266.213 243.964 265.148 241.085 265.148 237.64C265.148 234.693 265.896 232.155 267.392 230.024C268.933 227.848 271.087 226.193 273.852 225.06C276.617 223.881 279.859 223.292 283.576 223.292C289.288 223.292 293.844 224.652 297.244 227.372C300.644 230.047 302.571 233.605 303.024 238.048H292.96C292.507 235.645 291.396 233.877 289.628 232.744C287.905 231.611 285.684 231.044 282.964 231.044C280.607 231.044 278.725 231.497 277.32 232.404C275.915 233.311 275.212 234.535 275.212 236.076C275.212 237.255 275.597 238.343 276.368 239.34C277.139 240.292 278.748 241.108 281.196 241.788L290.308 244.304C295.113 245.619 298.559 247.432 300.644 249.744C302.775 252.011 303.84 254.889 303.84 258.38C303.84 263.276 302.14 267.039 298.74 269.668C295.34 272.297 290.603 273.612 284.528 273.612ZM337.963 273V232.064H321.983V224.04H364.415V232.064H348.435V273H337.963ZM385.759 273V224.04H396.231V273H385.759ZM417.447 273V224.04H427.919V273H417.447ZM390.655 243.488H422.207V251.512H390.655V243.488ZM451.02 273V224.04H461.492V273H451.02ZM455.916 273V264.976H487.468V273H455.916ZM455.916 251.92V244.032H485.088V251.92H455.916ZM455.916 232.064V224.04H486.652V232.064H455.916ZM524.753 273L507.209 224.04H518.089L531.485 264.84H530.193L543.657 224.04H553.993L536.449 273H524.753ZM565.033 273L582.577 224.04H591.553L575.437 273H565.033ZM600.937 273L584.889 224.04H594.273L611.817 273H600.937ZM574.281 254.028H601.753V262.188H574.281V254.028Z" fill="white"/>
<path d="M441.324 314C440.934 314 440.789 313.785 440.891 313.355L444.465 297.84C444.566 297.41 444.812 297.195 445.203 297.195H450.008C451.836 297.195 453.223 297.605 454.168 298.426C455.121 299.246 455.598 300.355 455.598 301.754C455.598 303.168 455.027 304.438 453.887 305.562C452.754 306.688 450.805 307.25 448.039 307.25H444.547L443.141 313.355C443.039 313.785 442.793 314 442.402 314H441.324ZM444.992 305.328H448.637C450.254 305.328 451.438 305.023 452.188 304.414C452.938 303.797 453.312 302.988 453.312 301.988C453.312 300.926 453.02 300.184 452.434 299.762C451.848 299.332 450.902 299.117 449.598 299.117H446.422L444.992 305.328ZM462.26 307.203C462.26 304.078 463.096 301.57 464.768 299.68C466.44 297.789 468.604 296.844 471.26 296.844C473.643 296.844 475.444 297.48 476.662 298.754C477.881 300.02 478.49 301.766 478.49 303.992C478.49 307.117 477.655 309.625 475.983 311.516C474.311 313.406 472.147 314.352 469.49 314.352C467.108 314.352 465.307 313.719 464.088 312.453C462.869 311.18 462.26 309.43 462.26 307.203ZM464.662 307.484C464.662 309.086 465.076 310.328 465.905 311.211C466.74 312.086 467.979 312.523 469.619 312.523C471.338 312.523 472.846 311.809 474.143 310.379C475.44 308.941 476.088 306.719 476.088 303.711C476.088 302.109 475.67 300.871 474.834 299.996C474.006 299.113 472.772 298.672 471.131 298.672C469.412 298.672 467.905 299.391 466.608 300.828C465.311 302.258 464.662 304.477 464.662 307.484ZM485.797 314C485.407 314 485.262 313.785 485.364 313.355L488.938 297.84C489.04 297.41 489.286 297.195 489.676 297.195H490.754C491.145 297.195 491.29 297.41 491.188 297.84L487.907 312.078H495.676C496.106 312.078 496.278 312.254 496.192 312.605L495.993 313.473C495.915 313.824 495.661 314 495.231 314H485.797ZM503.768 297.969C503.557 297.453 503.721 297.195 504.26 297.195H505.35C505.694 297.195 505.932 297.387 506.065 297.77L507.893 302.891C508.003 303.203 508.147 303.633 508.327 304.18C508.514 304.719 508.663 305.223 508.772 305.691H508.819C509.147 305.223 509.467 304.785 509.78 304.379C510.1 303.973 510.503 303.477 510.987 302.891L515.182 297.77C515.495 297.387 515.819 297.195 516.155 297.195H517.62C518.167 297.195 518.214 297.453 517.76 297.969L509.78 307.086L508.339 313.355C508.237 313.785 507.991 314 507.6 314H506.522C506.132 314 505.987 313.785 506.089 313.355L507.53 307.086L503.768 297.969ZM522.829 307.203C522.829 304.117 523.649 301.621 525.29 299.715C526.938 297.801 529.235 296.844 532.181 296.844C533.618 296.844 534.782 297.094 535.673 297.594C536.563 298.094 537.192 298.758 537.56 299.586C537.739 300 537.649 300.312 537.29 300.523L536.376 301.062C536.165 301.188 535.962 301.078 535.767 300.734C535.532 300.312 535.106 299.863 534.489 299.387C533.872 298.91 533.036 298.672 531.981 298.672C530.028 298.672 528.415 299.387 527.142 300.816C525.868 302.246 525.231 304.465 525.231 307.473C525.231 308.895 525.606 310.094 526.356 311.07C527.106 312.039 528.38 312.523 530.177 312.523C531.239 312.523 532.138 312.246 532.872 311.691C533.614 311.129 534.188 310.566 534.595 310.004C534.923 309.551 535.228 309.414 535.509 309.594L536.563 310.273C536.821 310.438 536.79 310.75 536.47 311.211C535.853 312.109 535.02 312.859 533.974 313.461C532.927 314.055 531.556 314.352 529.86 314.352C527.501 314.352 525.739 313.68 524.575 312.336C523.411 310.984 522.829 309.273 522.829 307.203ZM544.937 314C544.546 314 544.402 313.785 544.503 313.355L548.077 297.84C548.179 297.41 548.425 297.195 548.816 297.195H549.894C550.284 297.195 550.429 297.41 550.327 297.84L547.046 312.078H554.816C555.245 312.078 555.417 312.254 555.331 312.605L555.132 313.473C555.054 313.824 554.8 314 554.37 314H544.937ZM564.009 314C563.619 314 563.474 313.785 563.576 313.355L567.15 297.84C567.251 297.41 567.497 297.195 567.888 297.195H568.966C569.357 297.195 569.501 297.41 569.4 297.84L565.826 313.355C565.724 313.785 565.478 314 565.087 314H564.009ZM576.004 314C575.613 314 575.468 313.785 575.57 313.355L579.144 297.84C579.246 297.41 579.492 297.195 579.883 297.195H581.3C581.855 297.195 582.203 297.391 582.343 297.781L586.89 310.203H586.937C587.008 309.844 587.074 309.531 587.136 309.266L589.761 297.84C589.863 297.41 590.109 297.195 590.5 297.195H591.578C591.968 297.195 592.113 297.41 592.011 297.84L588.437 313.355C588.336 313.785 588.09 314 587.699 314H586.738C586.191 314 585.847 313.805 585.707 313.414L580.867 300.23H580.82C580.758 300.574 580.695 300.887 580.633 301.168L577.82 313.355C577.718 313.785 577.472 314 577.082 314H576.004ZM598.58 307.203C598.58 304.117 599.4 301.621 601.041 299.715C602.689 297.801 604.986 296.844 607.932 296.844C609.369 296.844 610.533 297.094 611.424 297.594C612.314 298.094 612.943 298.758 613.31 299.586C613.49 300 613.4 300.312 613.041 300.523L612.127 301.062C611.916 301.188 611.713 301.078 611.518 300.734C611.283 300.312 610.857 299.863 610.24 299.387C609.623 298.91 608.787 298.672 607.732 298.672C605.779 298.672 604.166 299.387 602.893 300.816C601.619 302.246 600.982 304.465 600.982 307.473C600.982 308.895 601.357 310.094 602.107 311.07C602.857 312.039 604.131 312.523 605.928 312.523C606.99 312.523 607.889 312.246 608.623 311.691C609.365 311.129 609.939 310.566 610.346 310.004C610.674 309.551 610.978 309.414 611.26 309.594L612.314 310.273C612.572 310.438 612.541 310.75 612.221 311.211C611.603 312.109 610.771 312.859 609.725 313.461C608.678 314.055 607.307 314.352 605.611 314.352C603.252 314.352 601.49 313.68 600.326 312.336C599.162 310.984 598.58 309.273 598.58 307.203Z" fill="white"/>
<defs>
<filter id="filter0_d_2028_452" x="163.003" y="0" width="195.998" height="199" filterUnits="userSpaceOnUse" color-interpolation-filters="sRGB">
<feFlood flood-opacity="0" result="BackgroundImageFix"/>
<feColorMatrix in="SourceAlpha" type="matrix" values="0 0 0 0 0 0 0 0 0 0 0 0 0 0 0 0 0 0 127 0" result="hardAlpha"/>
<feOffset dy="4"/>
<feGaussianBlur stdDeviation="2"/>
<feComposite in2="hardAlpha" operator="out"/>
<feColorMatrix type="matrix" values="0 0 0 0 0 0 0 0 0 0 0 0 0 0 0 0 0 0 0.25 0"/>
<feBlend mode="normal" in2="BackgroundImageFix" result="effect1_dropShadow_2028_452"/>
<feBlend mode="normal" in="SourceGraphic" in2="effect1_dropShadow_2028_452" result="shape"/>
</filter>
<filter id="filter1_dd_2028_452" x="-0.00108337" y="160.001" width="199" height="195.999" filterUnits="userSpaceOnUse" color-interpolation-filters="sRGB">
<feFlood flood-opacity="0" result="BackgroundImageFix"/>
<feColorMatrix in="SourceAlpha" type="matrix" values="0 0 0 0 0 0 0 0 0 0 0 0 0 0 0 0 0 0 127 0" result="hardAlpha"/>
<feMorphology radius="1" operator="dilate" in="SourceAlpha" result="effect1_dropShadow_2028_452"/>
<feOffset dy="1"/>
<feGaussianBlur stdDeviation="1.5"/>
<feColorMatrix type="matrix" values="0 0 0 0 0 0 0 0 0 0 0 0 0 0 0 0 0 0 0.15 0"/>
<feBlend mode="normal" in2="BackgroundImageFix" result="effect1_dropShadow_2028_452"/>
<feColorMatrix in="SourceAlpha" type="matrix" values="0 0 0 0 0 0 0 0 0 0 0 0 0 0 0 0 0 0 127 0" result="hardAlpha"/>
<feOffset dy="1"/>
<feGaussianBlur stdDeviation="1"/>
<feColorMatrix type="matrix" values="0 0 0 0 0 0 0 0 0 0 0 0 0 0 0 0 0 0 0.3 0"/>
<feBlend mode="normal" in2="effect1_dropShadow_2028_452" result="effect2_dropShadow_2028_452"/>
<feBlend mode="normal" in="SourceGraphic" in2="effect2_dropShadow_2028_452" result="shape"/>
</filter>
<filter id="filter2_d_2028_452" x="99" y="87.4924" width="154" height="196" filterUnits="userSpaceOnUse" color-interpolation-filters="sRGB">
<feFlood flood-opacity="0" result="BackgroundImageFix"/>
<feColorMatrix in="SourceAlpha" type="matrix" values="0 0 0 0 0 0 0 0 0 0 0 0 0 0 0 0 0 0 127 0" result="hardAlpha"/>
<feOffset dy="4"/>
<feGaussianBlur stdDeviation="2"/>
<feComposite in2="hardAlpha" operator="out"/>
<feColorMatrix type="matrix" values="0 0 0 0 0 0 0 0 0 0 0 0 0 0 0 0 0 0 0.25 0"/>
<feBlend mode="normal" in2="BackgroundImageFix" result="effect1_dropShadow_2028_452"/>
<feBlend mode="normal" in="SourceGraphic" in2="effect1_dropShadow_2028_452" result="shape"/>
</filter>
<linearGradient id="paint0_linear_2028_452" x1="393" y1="-30.5" x2="116.5" y2="224.5" gradientUnits="userSpaceOnUse">
<stop stop-color="#07407D"/>
<stop offset="1" stop-color="#0D75E3"/>
</linearGradient>
<linearGradient id="paint1_linear_2028_452" x1="28.5" y1="393.5" x2="300" y2="83" gradientUnits="userSpaceOnUse">
<stop stop-color="#70077D"/>
<stop offset="0.49995" stop-color="#3E3EB1"/>
<stop offset="0.9999" stop-color="#0D75E4"/>
</linearGradient>
<linearGradient id="paint2_linear_2028_452" x1="63" y1="131" x2="192.5" y2="200.5" gradientUnits="userSpaceOnUse">
<stop stop-color="#0E82FD"/>
<stop offset="1" stop-color="#084E97"/>
</linearGradient>
<linearGradient id="paint3_linear_2028_452" x1="74" y1="115.5" x2="224" y2="116.5" gradientUnits="userSpaceOnUse">
<stop stop-color="#0E82FD"/>
<stop offset="1" stop-color="#084E97"/>
</linearGradient>
<linearGradient id="paint4_linear_2028_452" x1="72.5" y1="177" x2="181" y2="177.5" gradientUnits="userSpaceOnUse">
<stop stop-color="#0E82FD"/>
<stop offset="1" stop-color="#084E97"/>
</linearGradient>
<linearGradient id="paint5_linear_2028_452" x1="244.5" y1="250" x2="-161" y2="166" gradientUnits="userSpaceOnUse">
<stop stop-color="#084E97"/>
<stop offset="1" stop-color="#0E82FD"/>
</linearGradient>
</defs>
</svg>
